HIERARCHY
ROOT Hips
{
    OFFSET 0.000000 0.000000 0.000000
    CHANNELS 6 Xposition Yposition Zposition Zrotation Xrotation Yrotation
    JOINT Spine
    {
        OFFSET -0.000000 14.517291 0.000000
        CHANNELS 3 Zrotation Xrotation Yrotation
        JOINT Spine1
        {
            OFFSET -0.000000 37.558300 0.000000
            CHANNELS 3 Zrotation Xrotation Yrotation
            JOINT Neck
            {
                OFFSET -0.000000 37.404057 3.400369
                CHANNELS 3 Zrotation Xrotation Yrotation
                JOINT Head
                {
                    OFFSET -0.000000 24.785618 -3.540803
                    CHANNELS 3 Zrotation Xrotation Yrotation
                    End Site
                    {
                        OFFSET -0.000000 35.408028 0.000000
                    }
                }
            }
            JOINT LeftShoulder
            {
                OFFSET 6.992933 33.973492 -0.192664
                CHANNELS 3 Zrotation Xrotation Yrotation
                JOINT LeftArm
                {
                    OFFSET 21.527611 0.000000 0.000000
                    CHANNELS 3 Zrotation Xrotation Yrotation
                    JOINT LeftForeArm
                    {
                        OFFSET 56.353916 0.000000 0.000000
                        CHANNELS 3 Zrotation Xrotation Yrotation
                        JOINT LeftHand
                        {
                            OFFSET 47.774071 0.000000 0.000000
                            CHANNELS 3 Zrotation Xrotation Yrotation
                            End Site
                            {
                                OFFSET 26.556021 0.000000 0.000000
                            }
                        }
                    }
                }
            }
            JOINT RightShoulder
            {
                OFFSET -7.065357 33.973492 -0.192664
                CHANNELS 3 Zrotation Xrotation Yrotation
                JOINT RightArm
                {
                    OFFSET -21.527611 0.000000 0.000000
                    CHANNELS 3 Zrotation Xrotation Yrotation
                    JOINT RightForeArm
                    {
                        OFFSET -56.353916 0.000000 0.000000
                        CHANNELS 3 Zrotation Xrotation Yrotation
                        JOINT RightHand
                        {
                            OFFSET -47.774071 0.000000 0.000000
                            CHANNELS 3 Zrotation Xrotation Yrotation
                            End Site
                            {
                                OFFSET -26.556021 0.000000 0.000000
                            }
                        }
                    }
                }
            }
        }
    }
    JOINT LeftUpLeg
    {
        OFFSET 17.704014 0.000000 0.000000
        CHANNELS 3 Zrotation Xrotation Yrotation
        JOINT LeftLeg
        {
            OFFSET -0.000000 -81.181816 0.000000
            CHANNELS 3 Zrotation Xrotation Yrotation
            JOINT LeftFoot
            {
                OFFSET -0.000000 -62.821102 0.000000
                CHANNELS 3 Zrotation Xrotation Yrotation
                JOINT LeftToeBase
                {
                    OFFSET -0.000000 -11.507608 26.556021
                    CHANNELS 3 Zrotation Xrotation Yrotation
                    End Site
                    {
                        OFFSET -0.000000 0.000000 7.081605
                    }
                }
            }
        }
    }
    JOINT RightUpLeg
    {
        OFFSET -17.704014 0.000000 0.000000
        CHANNELS 3 Zrotation Xrotation Yrotation
        JOINT RightLeg
        {
            OFFSET -0.000000 -81.181816 0.000000
            CHANNELS 3 Zrotation Xrotation Yrotation
            JOINT RightFoot
            {
                OFFSET -0.000000 -62.821102 0.000000
                CHANNELS 3 Zrotation Xrotation Yrotation
                JOINT RightToeBase
                {
                    OFFSET -0.000000 -11.507608 26.556021
                    CHANNELS 3 Zrotation Xrotation Yrotation
                    End Site
                    {
                        OFFSET -0.000000 0.000000 7.081605
                    }
                }
            }
        }
    }
}
MOTION
Frames:    5
Frame Time:    0.008333
31.157207    154.994598    56.071758    4.210625    8.045978    -53.495480    -1.081825    1.650350    -0.996695    1.602201    -1.099724    -0.321768    20.146959    1.200170    11.088111    -10.706227    4.017736    7.586563    13.050027    3.501651    -17.993210    -6.944623    -5.377154    -25.765106    11.283210    1.519908    -48.138287    -0.132869    6.618933    -43.976528    -7.209669    -2.656781    -7.181176    29.070545    -24.070852    42.507366    4.705720    -26.192608    101.291862    18.267450    -26.577990    32.175838    30.795826    -30.421797    14.280579    -25.876183    36.185581    -2.505233    1.590122    -7.163782    43.902409    0.000000    0.000000    0.000000    -24.785097    -14.801911    -18.086153    3.118064    30.607582    -11.594826    18.538857    7.277723    -8.259373    0.000000    0.000000    0.000000    
31.051666    154.836273    55.953156    4.202705    7.910684    -53.529987    -1.024330    1.634125    -0.994137    1.572523    -1.076631    -0.321305    20.068842    1.130388    11.102936    -10.726472    4.147682    7.610513    13.006546    3.496651    -18.005669    -6.958274    -5.351754    -25.674099    11.257385    1.465611    -48.033802    -0.151895    6.549065    -44.162243    -7.326344    -2.722083    -7.208053    28.968315    -24.173428    42.607155    4.876029    -25.953112    101.222061    18.191046    -26.535906    32.201172    30.805037    -30.374327    14.366925    -25.930248    36.344215    -2.493976    1.599491    -7.257316    43.872250    0.000000    0.000000    0.000000    -24.879080    -14.857549    -17.812248    3.130080    31.164371    -11.588809    19.455673    6.888371    -9.207480    0.000000    0.000000    0.000000    
30.927723    154.653030    55.800999    4.171233    7.790349    -53.544804    -0.992558    1.629472    -1.025998    1.626144    -1.086704    -0.331090    19.993017    1.216143    11.132502    -10.803366    4.139180    7.658778    12.928230    3.483940    -18.036703    -6.968873    -5.272598    -25.538874    11.409088    1.683222    -47.901398    0.186458    6.681139    -44.147263    -7.521484    -2.779826    -7.141726    28.899960    -24.234451    42.642124    5.001379    -25.773628    101.136810    18.277126    -26.456591    32.245045    30.867893    -30.338778    14.462597    -26.006950    36.542927    -2.523275    1.601920    -7.378644    43.884205    0.000000    0.000000    0.000000    -24.927000    -14.899071    -17.554760    3.059644    31.708225    -11.534597    20.257050    6.658536    -9.620358    0.000000    0.000000    0.000000    
30.795597    154.430984    55.594707    4.142264    7.685096    -53.582161    -0.923357    1.603506    -1.046932    1.480825    -1.042187    -0.340380    20.195333    1.216461    11.197184    -10.949145    4.184730    7.686369    13.101453    3.533135    -18.007479    -7.008353    -5.186172    -25.473862    11.542449    1.527242    -47.830982    0.107003    6.609267    -44.049877    -7.453357    -2.892687    -7.060563    28.694666    -24.255053    42.662674    5.099798    -25.719019    100.993805    18.221926    -26.502993    32.293335    30.994637    -30.319296    14.623346    -26.112230    36.776863    -2.508214    1.637052    -7.502926    43.858463    0.000000    0.000000    0.000000    -24.937563    -14.994038    -17.206657    2.996308    32.241196    -11.459091    21.278648    6.321466    -10.051256    0.000000    0.000000    0.000000    
30.656832    154.185104    55.348946    4.137679    7.583273    -53.627453    -0.928590    1.605879    -1.061101    1.525118    -1.068396    -0.344325    20.146236    1.243445    11.224067    -10.996430    4.195179    7.722362    13.066802    3.504483    -18.029074    -7.019350    -5.078056    -25.306755    11.648249    1.509226    -47.755852    0.245814    6.573243    -44.218086    -7.586209    -2.933403    -7.007590    28.637028    -24.298641    42.742569    5.177704    -25.615713    100.892067    18.303295    -26.443958    32.354893    31.137480    -30.327084    14.796227    -26.214409    37.030106    -2.570986    1.660470    -7.644985    43.889400    0.000000    0.000000    0.000000    -24.957491    -15.121176    -16.650490    3.051577    32.708660    -11.434642    22.256754    5.761913    -10.466995    0.000000    0.000000    0.000000    
